# xmcd
#
# Track frame offsets:
#	150
#	12376
#	23033
#	37976
#	51491
#	68045
#	81162
#	92212
#	104865
#	114072
#	127338
#	138326
#	151780
#	162623
#	176598
#	187766
#	198816
#	212884
#	226137
#	238545
#
# Disc length: 3326 seconds
#
# Revision: 0
# Processed by: cddbd v1.5.2PL0 Copyright (c) Steve Scherf et al.
# Submitted via: audiograbber 1.83.01
#
DISCID=0d0cfc14
DTITLE=George Jones - The Legendary CD2
DYEAR=1998
DGENRE=Country
TTITLE0=Out Of Our Minds
TTITLE1=Maybellene
TTITLE2=Yesterdays Wine
TTITLE3=Size Seven
TTITLE4=C. C. Waterback
TTITLE5=Color Of The Blues
TTITLE6=Who Shot Sam
TTITLE7=If My Heart Had Windows
TTITLE8=Love Bug
TTITLE9=When The Grass Grows Over Me
TTITLE10=Near You
TTITLE11=Were Gonna Hold On
TTITLE12=Take Me
TTITLE13=Golden Ring
TTITLE14=The Jet Set
TTITLE15=We Loved It Away
TTITLE16=The Ceremony
TTITLE17=Southern California
TTITLE18=Two Story House
TTITLE19=A Pair Of Old Sneakers
EXTD=
EXTT0=
EXTT1=
EXTT2=
EXTT3=
EXTT4=
EXTT5=
EXTT6=
EXTT7=
EXTT8=
EXTT9=
EXTT10=
EXTT11=
EXTT12=
EXTT13=
EXTT14=
EXTT15=
EXTT16=
EXTT17=
EXTT18=
EXTT19=
PLAYORDER=
